<svg width="24" height="24" viewBox="0 0 24 24" fill="none" xmlns="http://www.w3.org/2000/svg">
<path fill-rule="evenodd" clip-rule="evenodd" d="M7.25 2.58545C4.06819 2.58545 1.5 5.18 1.5 8.3667C1.5 10.4501 2.696 12.2942 3.99878 13.8018C6.15585 16.2979 8.67538 18.9175 10.9955 21.0261C11.5654 21.5441 12.4346 21.5441 13.0045 21.0261C15.3246 18.9175 17.8442 16.2979 20.0012 13.8018C21.304 12.2942 22.5 10.4501 22.5 8.3667C22.5 5.18 19.9318 2.58545 16.75 2.58545C15.3798 2.58545 14.1198 3.06853 13.1326 3.8726C12.6346 4.2783 12.2699 4.6255 11.9972 4.91431C11.7262 4.62411 11.3635 4.27673 10.8674 3.8726C9.88018 3.06853 8.62017 2.58545 7.25 2.58545ZM3.5 8.3667C3.5 6.27218 5.1851 4.58545 7.25 4.58545C8.14219 4.58545 8.95985 4.89839 9.60428 5.4233C10.2751 5.96968 10.6249 6.36387 10.8181 6.60533C10.8948 6.70121 10.9258 6.74359 10.9593 6.7895C10.9854 6.8252 11.0131 6.86303 11.065 6.92979C11.0976 6.97174 11.1711 7.06571 11.2697 7.15224C11.3669 7.23748 11.6073 7.42212 11.9692 7.42924C12.3356 7.43644 12.5854 7.2576 12.69 7.1703C12.7937 7.08367 12.8705 6.98862 12.9045 6.94632C12.936 6.90715 12.9726 6.85904 13.0036 6.81839L13.0257 6.78937C13.0653 6.73766 13.1085 6.68186 13.1598 6.61893C13.3584 6.37507 13.7157 5.97716 14.3957 5.4233C15.0401 4.89839 15.8578 4.58545 16.75 4.58545C18.8149 4.58545 20.5 6.27218 20.5 8.3667C20.5 9.697 19.7195 11.069 18.488 12.4941C16.4815 14.816 14.158 17.2424 12 19.2341C9.84195 17.2424 7.51855 14.816 5.51203 12.4941C4.28051 11.069 3.5 9.697 3.5 8.3667Z" fill="#1C1C1C"/>
</svg>
