<svg width="32" height="32" viewBox="0 0 32 32" fill="none" xmlns="http://www.w3.org/2000/svg">
<path d="M5.5 12.2812C5.5 9.09455 8.06819 6.5 11.25 6.5C12.6202 6.5 13.8802 6.98308 14.8674 7.78715C15.3635 8.19128 15.7262 8.53866 15.9972 8.82886C16.2699 8.54005 16.6346 8.19285 17.1326 7.78715C18.1198 6.98308 19.3798 6.5 20.75 6.5C23.9318 6.5 26.5 9.09455 26.5 12.2812C26.5 14.3647 25.304 16.2088 24.0012 17.7163C21.8442 20.2125 19.3246 22.8321 17.0045 24.9407C16.4346 25.4586 15.5654 25.4586 14.9955 24.9407C12.6754 22.8321 10.1559 20.2125 7.99878 17.7163C6.696 16.2088 5.5 14.3647 5.5 12.2812Z" fill="black" fill-opacity="0.25"/>
<path fill-rule="evenodd" clip-rule="evenodd" d="M11.25 6.5C8.06819 6.5 5.5 9.09455 5.5 12.2812C5.5 14.3647 6.696 16.2088 7.99878 17.7163C10.1559 20.2125 12.6754 22.8321 14.9955 24.9407C15.5654 25.4586 16.4346 25.4586 17.0045 24.9407C19.3246 22.8321 21.8442 20.2125 24.0012 17.7163C25.304 16.2088 26.5 14.3647 26.5 12.2812C26.5 9.09455 23.9318 6.5 20.75 6.5C19.3798 6.5 18.1198 6.98308 17.1326 7.78715C16.6346 8.19285 16.2699 8.54005 15.9972 8.82886C15.7262 8.53866 15.3635 8.19128 14.8674 7.78715C13.8802 6.98308 12.6202 6.5 11.25 6.5ZM7.5 12.2812C7.5 10.1867 9.1851 8.5 11.25 8.5C12.1422 8.5 12.9599 8.81294 13.6043 9.33785C14.2751 9.88423 14.6249 10.2784 14.8181 10.5199C14.8948 10.6158 14.9258 10.6581 14.9593 10.7041C14.9854 10.7397 15.0131 10.7776 15.065 10.8443C15.0976 10.8863 15.1711 10.9803 15.2697 11.0668C15.3669 11.152 15.6073 11.3367 15.9692 11.3438C16.3356 11.351 16.5854 11.1722 16.69 11.0849C16.7937 10.9982 16.8705 10.9032 16.9045 10.8609C16.936 10.8217 16.9726 10.7736 17.0036 10.7329L17.0257 10.7039C17.0653 10.6522 17.1085 10.5964 17.1598 10.5335C17.3584 10.2896 17.7157 9.89171 18.3957 9.33785C19.0401 8.81294 19.8578 8.5 20.75 8.5C22.8149 8.5 24.5 10.1867 24.5 12.2812C24.5 13.6116 23.7195 14.9835 22.488 16.4087C20.4815 18.7306 18.158 21.157 16 23.1486C13.842 21.157 11.5185 18.7306 9.51203 16.4087C8.28051 14.9835 7.5 13.6116 7.5 12.2812Z" fill="white"/>
</svg>
