<svg width="24" height="24" viewBox="0 0 24 24" fill="none" xmlns="http://www.w3.org/2000/svg">
<path fill-rule="evenodd" clip-rule="evenodd" d="M8 10.75C8 8.54086 9.79086 6.75 12 6.75C14.2091 6.75 16 8.54086 16 10.75C16 12.9591 14.2091 14.75 12 14.75C9.79086 14.75 8 12.9591 8 10.75ZM12 8.75C10.8954 8.75 10 9.64543 10 10.75C10 11.8546 10.8954 12.75 12 12.75C13.1046 12.75 14 11.8546 14 10.75C14 9.64543 13.1046 8.75 12 8.75Z" fill="#1C1C1C"/>
<path fill-rule="evenodd" clip-rule="evenodd" d="M3 10.75C3 5.77944 7.02944 1.75 12 1.75C16.9706 1.75 21 5.77944 21 10.75C21 14.1368 19.0363 17.0029 17.0821 18.9571C16.0924 19.9468 15.0683 20.7407 14.2151 21.2927C13.7893 21.5682 13.3937 21.7915 13.0558 21.9502C12.8873 22.0292 12.7206 22.0982 12.563 22.1493C12.4228 22.1947 12.2191 22.25 12 22.25C11.7809 22.25 11.5772 22.1947 11.437 22.1493C11.2794 22.0982 11.1127 22.0292 10.9442 21.9502C10.6063 21.7915 10.2107 21.5682 9.78487 21.2927C8.93174 20.7407 7.90756 19.9468 6.91789 18.9571C4.96368 17.0029 3 14.1368 3 10.75ZM12 3.75C8.13401 3.75 5 6.88401 5 10.75C5 13.3632 6.53632 15.7471 8.33211 17.5429C9.21744 18.4282 10.1308 19.1343 10.8714 19.6136C11.2424 19.8536 11.5578 20.0288 11.794 20.1397C11.8794 20.1797 11.9479 20.2083 12 20.2278C12.0521 20.2083 12.1207 20.1797 12.206 20.1397C12.4422 20.0288 12.7576 19.8536 13.1286 19.6136C13.8692 19.1343 14.7826 18.4282 15.6679 17.5429C17.4637 15.7471 19 13.3632 19 10.75C19 6.88401 15.866 3.75 12 3.75ZM12.0888 20.2571L12.0933 20.2581L12.091 20.2576L12.0888 20.2571Z" fill="#1C1C1C"/>
</svg>
