<svg width="24" height="24" viewBox="0 0 24 24" fill="none" xmlns="http://www.w3.org/2000/svg">
<path fill-rule="evenodd" clip-rule="evenodd" d="M14.3753 6.21913L17.1492 4H5V2H20C20.5523 2 21 2.44772 21 3V17C21 17.3038 20.8619 17.5911 20.6247 17.7809L15.6247 21.7809C15.3245 22.021 14.9133 22.0678 14.5668 21.9013C14.2203 21.7348 14 21.3844 14 21V20H5V18H14V7C14 6.69622 14.1381 6.4089 14.3753 6.21913ZM19 5.08062L16 7.48062V18.9194L19 16.5194V5.08062Z" fill="#1C1C1C"/>
<path d="M12 11C12 11.2652 11.8946 11.5195 11.7071 11.7071L7.70711 15.7071L6.29289 14.2928L8.58579 12L3 12V10L8.58579 9.99995L6.29289 7.70706L7.70711 6.29285L11.7071 10.2928C11.8946 10.4804 12 10.7347 12 11Z" fill="#1C1C1C"/>
</svg>
