<svg width="24" height="24" viewBox="0 0 24 24" fill="none" xmlns="http://www.w3.org/2000/svg">
<path fill-rule="evenodd" clip-rule="evenodd" d="M18.8965 10.8964C18.8965 6.47815 15.3148 2.89642 10.8965 2.89642C6.47821 2.89642 2.89648 6.47815 2.89648 10.8964C2.89648 15.3147 6.47821 18.8964 10.8965 18.8964C12.7447 18.8964 14.4465 18.2697 15.801 17.2172L19.6894 21.1035L21.1036 19.6893L17.2172 15.8009C18.2697 14.4464 18.8965 12.7446 18.8965 10.8964ZM4.89648 10.8964C4.89648 7.58272 7.58278 4.89642 10.8965 4.89642C14.2102 4.89642 16.8965 7.58272 16.8965 10.8964C16.8965 14.2101 14.2102 16.8964 10.8965 16.8964C7.58278 16.8964 4.89648 14.2101 4.89648 10.8964Z" fill="white"/>
</svg>
