<svg width="16" height="16" viewBox="0 0 16 16" fill="none" xmlns="http://www.w3.org/2000/svg">
<path d="M10.2918 5.55951L14.4825 6.03472C14.7097 6.06048 14.9006 6.21256 14.9713 6.42406C15.042 6.63555 14.9795 6.8677 14.8113 7.01837L11.7082 9.7975L12.5383 13.819C12.5833 14.0371 12.4936 14.2606 12.3085 14.3913C12.1235 14.522 11.877 14.536 11.6776 14.427L8 12.4167L4.32234 14.427C4.12295 14.536 3.87653 14.522 3.69147 14.3913C3.50642 14.2606 3.41664 14.0371 3.46164 13.8191L4.29179 9.79751L1.18874 7.01838C1.02051 6.86771 0.957982 6.63556 1.02867 6.42407C1.09935 6.21258 1.29029 6.0605 1.51749 6.03473L5.70821 5.55952L7.46806 1.83165C7.56347 1.62955 7.77125 1.5 8 1.5C8.22874 1.5 8.43652 1.62955 8.53193 1.83165L10.2918 5.55951Z" fill="#1C1C1C"/>
</svg>
