<svg width="104" height="32" viewBox="0 0 104 32" fill="none" xmlns="http://www.w3.org/2000/svg">
<g clip-path="url(#clip0_509_4893)">
<path d="M50.1379 5.55735L48.4819 13.3333H51.1059L52.8739 4.99735L50.1379 5.55735Z" fill="#025F74"/>
<path d="M50.9299 3.61335C51.2179 3.84802 51.5646 3.96535 51.9699 3.96535C52.4393 3.96535 52.8393 3.81335 53.1699 3.50935C53.5059 3.20002 53.6739 2.81602 53.6739 2.35735C53.6739 1.94668 53.5326 1.62668 53.2499 1.39735C52.9726 1.16268 52.6259 1.04535 52.2099 1.04535C51.7619 1.04535 51.3646 1.19468 51.0179 1.49335C50.6766 1.78668 50.5059 2.17868 50.5059 2.66935C50.5059 3.06402 50.6473 3.37868 50.9299 3.61335Z" fill="#025F74"/>
<path d="M35.9919 5.17335L36.6879 13.3333H39.3119L41.8479 8.45335L42.1999 13.3333H44.7919L49.0319 5.17335H46.4639L44.0879 10.2213L43.7279 5.17335H41.3199L38.7039 10.2694L38.4719 5.17335H35.9919Z" fill="#025F74"/>
<path d="M53.3021 13.3333L55.6701 2.24535L58.4141 1.68535L55.9261 13.3333H53.3021Z" fill="#025F74"/>
<path fill-rule="evenodd" clip-rule="evenodd" d="M60.1142 13.1173C60.6689 13.4213 61.3089 13.5733 62.0342 13.5733C62.7435 13.5733 63.3515 13.4267 63.8582 13.1333C64.1154 12.9817 64.3465 12.8047 64.5514 12.6022L64.3942 13.3333H66.6582L69.1302 1.68535L66.4022 2.24535L65.6191 5.93722C65.3868 5.6988 65.1172 5.50284 64.8102 5.34935C64.2662 5.07202 63.6502 4.93335 62.9622 4.93335C62.3062 4.93335 61.6955 5.06402 61.1302 5.32535C60.5649 5.58668 60.0742 5.94668 59.6582 6.40535C59.2422 6.86402 58.9169 7.39202 58.6822 7.98935C58.4529 8.58668 58.3382 9.21868 58.3382 9.88535C58.3382 10.6374 58.4955 11.288 58.8102 11.8373C59.1249 12.3867 59.5595 12.8133 60.1142 13.1173ZM63.8902 10.9893C63.5542 11.208 63.1649 11.3173 62.7222 11.3173C62.3702 11.3173 62.0609 11.248 61.7942 11.1093C61.5275 10.9653 61.3169 10.7627 61.1622 10.5013C61.0075 10.2347 60.9302 9.92268 60.9302 9.56535C60.9302 9.13868 61.0209 8.74668 61.2022 8.38935C61.3889 8.02668 61.6475 7.73602 61.9782 7.51735C62.3142 7.29868 62.7035 7.18935 63.1462 7.18935C63.5035 7.18935 63.8155 7.26135 64.0822 7.40535C64.3542 7.54935 64.5649 7.75468 64.7142 8.02135C64.8689 8.28268 64.9462 8.59202 64.9462 8.94935C64.9462 9.37602 64.8529 9.76802 64.6662 10.1253C64.4849 10.4827 64.2262 10.7707 63.8902 10.9893Z" fill="#025F74"/>
<path d="M66.2524 29.3334L68.6364 18.1734L70.2124 17.6854L68.7004 24.7974L72.6444 21.4934H74.4764L71.0524 24.4854L73.3004 29.3334H71.5884L69.8124 25.3894L68.2924 26.6534L67.7244 29.3334H66.2524Z" fill="#025F74"/>
<path fill-rule="evenodd" clip-rule="evenodd" d="M52.0836 29.5734C51.2729 29.5734 50.5662 29.424 49.9636 29.1254C49.3662 28.8214 48.9022 28.4 48.5716 27.8614C48.2409 27.3227 48.0756 26.6987 48.0756 25.9894C48.0756 25.3334 48.1902 24.72 48.4196 24.1494C48.6542 23.5787 48.9796 23.0774 49.3956 22.6454C49.8169 22.208 50.3049 21.8667 50.8596 21.6214C51.4142 21.376 52.0142 21.2534 52.6596 21.2534C53.3102 21.2534 53.8782 21.3707 54.3636 21.6054C54.8542 21.84 55.2462 22.1627 55.5396 22.5734C55.8382 22.984 56.0276 23.4587 56.1076 23.9974C56.1876 24.5307 56.1449 25.1014 55.9796 25.7094H49.5316C49.4569 26.2694 49.5289 26.744 49.7476 27.1334C49.9716 27.5227 50.3049 27.8187 50.7476 28.0214C51.1902 28.224 51.7049 28.3254 52.2916 28.3254C52.6969 28.3254 53.1076 28.2694 53.5236 28.1574C53.9449 28.04 54.3316 27.872 54.6836 27.6534L54.8196 28.9094C54.5529 29.0587 54.2649 29.1814 53.9556 29.2774C53.6462 29.3734 53.3316 29.4454 53.0116 29.4934C52.6916 29.5467 52.3822 29.5734 52.0836 29.5734ZM50.7396 23.0134C50.2596 23.376 49.9476 23.8934 49.8036 24.5654H54.6756C54.7129 23.84 54.5369 23.3094 54.1476 22.9734C53.7582 22.632 53.2089 22.4614 52.4996 22.4614C51.8116 22.4614 51.2249 22.6454 50.7396 23.0134Z" fill="#025F74"/>
<path d="M36.9199 29.3334L36.0959 21.4934H37.5679L38.0719 27.5974L41.3519 21.4934H42.8399L43.3519 27.5574L46.5119 21.4934H47.9999L43.7919 29.3334H42.2399L41.6639 23.4294L38.4879 29.3334H36.9199Z" fill="#025F74"/>
<path fill-rule="evenodd" clip-rule="evenodd" d="M59.1511 29.1254C59.7537 29.424 60.4604 29.5734 61.2711 29.5734C61.5697 29.5734 61.8791 29.5467 62.1991 29.4934C62.5191 29.4454 62.8337 29.3734 63.1431 29.2774C63.4524 29.1814 63.7404 29.0587 64.0071 28.9094L63.8711 27.6534C63.5191 27.872 63.1324 28.04 62.7111 28.1574C62.2951 28.2694 61.8844 28.3254 61.4791 28.3254C60.8924 28.3254 60.3777 28.224 59.9351 28.0214C59.4924 27.8187 59.1591 27.5227 58.9351 27.1334C58.7164 26.744 58.6444 26.2694 58.7191 25.7094H65.1671C65.3324 25.1014 65.3751 24.5307 65.2951 23.9974C65.2151 23.4587 65.0257 22.984 64.7271 22.5734C64.4337 22.1627 64.0417 21.84 63.5511 21.6054C63.0657 21.3707 62.4977 21.2534 61.8471 21.2534C61.2017 21.2534 60.6017 21.376 60.0471 21.6214C59.4924 21.8667 59.0044 22.208 58.5831 22.6454C58.1671 23.0774 57.8417 23.5787 57.6071 24.1494C57.3777 24.72 57.2631 25.3334 57.2631 25.9894C57.2631 26.6987 57.4284 27.3227 57.7591 27.8614C58.0897 28.4 58.5537 28.8214 59.1511 29.1254ZM63.3351 22.9734C63.7244 23.3094 63.9004 23.84 63.8631 24.5654H58.9911C59.1351 23.8934 59.4471 23.376 59.9271 23.0134C60.4124 22.6454 60.9991 22.4614 61.6871 22.4614C62.3964 22.4614 62.9457 22.632 63.3351 22.9734Z" fill="#025F74"/>
<path fill-rule="evenodd" clip-rule="evenodd" d="M76.8073 29.1254C77.41 29.424 78.1167 29.5734 78.9273 29.5734C79.226 29.5734 79.5353 29.5467 79.8553 29.4934C80.1753 29.4454 80.49 29.3734 80.7993 29.2774C81.1087 29.1814 81.3967 29.0587 81.6633 28.9094L81.5273 27.6534C81.1753 27.872 80.7887 28.04 80.3673 28.1574C79.9513 28.2694 79.5407 28.3254 79.1353 28.3254C78.5487 28.3254 78.034 28.224 77.5913 28.0214C77.1487 27.8187 76.8153 27.5227 76.5913 27.1334C76.3727 26.744 76.3007 26.2694 76.3753 25.7094H82.8233C82.9887 25.1014 83.0313 24.5307 82.9513 23.9974C82.8713 23.4587 82.682 22.984 82.3833 22.5734C82.09 22.1627 81.698 21.84 81.2073 21.6054C80.722 21.3707 80.154 21.2534 79.5033 21.2534C78.858 21.2534 78.258 21.376 77.7033 21.6214C77.1487 21.8667 76.6607 22.208 76.2393 22.6454C75.8233 23.0774 75.498 23.5787 75.2633 24.1494C75.034 24.72 74.9193 25.3334 74.9193 25.9894C74.9193 26.6987 75.0847 27.3227 75.4153 27.8614C75.746 28.4 76.21 28.8214 76.8073 29.1254ZM80.9913 22.9734C81.3807 23.3094 81.5567 23.84 81.5193 24.5654H76.6473C76.7913 23.8934 77.1033 23.376 77.5833 23.0134C78.0687 22.6454 78.6553 22.4614 79.3433 22.4614C80.0527 22.4614 80.602 22.632 80.9913 22.9734Z" fill="#025F74"/>
<path d="M83.9087 29.3334L85.5007 21.8374L87.0767 21.3494L86.8127 22.5974C87.2074 22.1227 87.642 21.7814 88.1167 21.5734C88.5914 21.36 89.066 21.2534 89.5407 21.2534C90.1274 21.2534 90.642 21.3787 91.0847 21.6294C91.5274 21.88 91.8527 22.224 92.0607 22.6614C92.2687 23.0934 92.314 23.584 92.1967 24.1334L91.0927 29.3334H89.6207L90.6287 24.5894C90.762 23.976 90.6634 23.496 90.3327 23.1494C90.002 22.7974 89.5247 22.6214 88.9007 22.6214C88.5007 22.6214 88.1247 22.7067 87.7727 22.8774C87.4207 23.048 87.1194 23.2987 86.8687 23.6294C86.618 23.96 86.442 24.3627 86.3407 24.8374L85.3807 29.3334H83.9087Z" fill="#025F74"/>
<path fill-rule="evenodd" clip-rule="evenodd" d="M95.421 29.1174C95.965 29.4214 96.6023 29.5734 97.3329 29.5734C98.0903 29.5734 98.7143 29.424 99.2049 29.1254C99.5655 28.9044 99.8908 28.6425 100.181 28.3398L99.9649 29.3334H101.317L103.789 17.6854L102.221 18.1734L101.258 22.7117C100.992 22.3354 100.647 22.02 100.221 21.7654C99.6556 21.424 98.9596 21.2534 98.1329 21.2534C97.5143 21.2534 96.9329 21.3814 96.3889 21.6374C95.8503 21.888 95.3783 22.232 94.9729 22.6694C94.5729 23.1067 94.2583 23.6107 94.0289 24.1814C93.8049 24.7467 93.6929 25.344 93.6929 25.9734C93.6929 26.6827 93.8449 27.3067 94.1489 27.8454C94.4529 28.384 94.8769 28.808 95.421 29.1174ZM99.2609 27.8134C98.8023 28.1014 98.2716 28.2454 97.6689 28.2454C97.1729 28.2454 96.7409 28.1467 96.3729 27.9494C96.0049 27.752 95.7169 27.4747 95.5089 27.1174C95.3063 26.7547 95.2049 26.3307 95.2049 25.8454C95.2049 25.2427 95.3329 24.696 95.589 24.2054C95.845 23.7094 96.1996 23.3147 96.653 23.0214C97.1116 22.728 97.6396 22.5814 98.2369 22.5814C98.7383 22.5814 99.173 22.68 99.541 22.8774C99.9143 23.0694 100.205 23.3467 100.413 23.7094C100.621 24.072 100.725 24.4987 100.725 24.9894C100.725 25.5974 100.597 26.1467 100.341 26.6374C100.085 27.128 99.7249 27.52 99.2609 27.8134Z" fill="#025F74"/>
<path d="M88 11.8474L83 7.84741L78 11.8474L73.5622 8.29719L72.4377 9.70276L78 14.1525L83 10.1525L88 14.1525L93 10.1525L98 14.1525L103.562 9.70276L102.438 8.29719L98 11.8474L93 7.84741L88 11.8474Z" fill="#6BD7F9"/>
<path d="M31.9454 18.6851L6.05469 31.4707L17.2333 6.36804L31.9454 18.6851Z" fill="#025F74"/>
<path d="M0.0546875 13.616L25.0076 0.529297L12.0322 24.4041L0.0546875 13.616Z" fill="#FF5E03"/>
</g>
<defs>
<clipPath id="clip0_509_4893">
<rect width="104" height="32" fill="white"/>
</clipPath>
</defs>
</svg>
